<svg xmlns="http://www.w3.org/2000/svg" fill="currentColor" viewBox="0 0 48 48"><path d="M22.53125.1875c.10625.2.125.13125-.34375 1.28125-.3.7375-.29375.73125-1.675 1.25625-1.54375.5875-1.3875 1.09375.35 1.1375 1.19375.03125 1.09375-.1125 1.06875 1.6-.025 1.3125-.025 1.3125.225 1.45625.63125.35625 2.08125.01875 1.80625-.425-.075-.125-.1-2.35-.025-2.4875.0625-.125.125-.13125.89375-.13125 1.6125 0 2.03125-.56875.7625-1.03125-1.43125-.525-1.6625-.6625-1.85625-1.125-.10625-.24375-.275-.63125-.375-.86875-.1875-.4125-.1875-.4375-.0875-.6.14375-.25.14375-.25-.36875-.25-.475 0-.475 0-.375.1875m-11.4 4.93125c-.075.075-.14375.2875-.19375.575-.09375.6125-.25625 1.3625-.4875 2.24375-.19375.76875-.3875 1.88125-.3875 2.2625 0 .13125.125.5375.28125.93125.3.7375.3125.8.09375.68125-.26875-.14375-.89375.90625-.96875 1.625-.01875.225-.09375.63125-.15625.90625-.20625.88125-.20625.85625.06875 1.3875.1375.26875.30625.66875.375.89375.175.55.325.825.6625 1.2375.49375.60625.7875 1.30625.60625 1.45-.21875.1875-.71875-.2-1.16875-.90625-.5375-.84375-.8875-.48125-1.50625 1.56875-.4625 1.53125-.46875 1.51875 1.3625 3.39375C11.20625 24.9 12.25 26.23125 12.08125 26.4c-.1125.1125-.48125-.00625-1.2875-.4125C8.6 24.88125 8.2625 24.75 7.8875 24.84375c-.39375.09375-.76875.9-.775 1.6625-.0125.73125.65625 1.5625 1.95 2.44375.875.59375 1.4375 1 1.96875 1.43125.425.34375 1.65 1.21875 2.8875 2.075.8625.59375 1.39375 1.1125 1.39375 1.35625 0 .40625-2.3375 0-3.39375-.5875-.8875-.5-1.60625-.50625-1.60625-.025 0 .2625.01875.2875.86875 1.1125.48125.4625 1.14375 1.15 1.475 1.53125.65.7375.75625.84375 1.26875 1.225.58125.44375.6875.4625 1.38125.29375.81875-.19375 2.80625-.2125 3.09375-.03125.5.33125.61875 1.83125.23125 3.0125-.26875.81875-.10625 1.35.88125 2.95625.1375.23125.3125.51875.38125.6375.11875.2.38125.55 1.09375 1.46875 1.00625 1.3 1.275 1.89375 1.1 2.45C22.05 48 22.05 48 22.90625 48s.85625 0 .81875-.1375c-.1-.325-.1125-.6-.0375-.74375.175-.3375 1.15-1.7625 1.4125-2.06875.8125-.94375 2.1375-3.30625 2.2-3.9125.01875-.21875-.01875-.44375-.14375-.825-.31875-1-.23125-2.56875.15625-2.89375.3375-.2875 2.15-.30625 3.2125-.0375.85.21875 1.34375-.0875 2.80625-1.73125.49375-.55 1.125-1.20625 1.4-1.45 1.375-1.2125.775-1.8625-.88125-.95625-.84375.45625-1.8.69375-2.825.69375-.9625 0-.5375-.5625 1.41875-1.875.91875-.6125 1.78125-1.2375 2.3375-1.6875.55625-.44375 1.1375-.8625 1.96875-1.425 1.28125-.8625 1.9625-1.7125 1.95-2.44375-.0125-.75625-.39375-1.58125-.775-1.6625-.3875-.0875-.725.04375-2.8625 1.11875-2.0375 1.03125-1.725.23125 1.00625-2.55625 1.675-1.7125 1.85-2.0125 1.59375-2.79375-.05-.15-.175-.58125-.2875-.95625-.5-1.6875-.89375-2.0375-1.4125-1.25-.43125.65625-.8875 1.0375-1.125.94375-.28125-.10625.05-.8375.8625-1.88125.0625-.075.19375-.39375.3-.7.1-.3125.28125-.7375.4-.95.30625-.53125.30625-.5625.1625-1.16875-.06875-.30625-.16875-.80625-.2125-1.11875-.11875-.76875-.625-1.71875-.91875-1.71875-.23125 0-.23125-.00625.06875-.75625.3375-.85.31875-1.1875-.21875-3.4-.15-.61875-.325-1.40625-.38125-1.75-.11875-.725-.1625-.83125-.36875-.88125-.2875-.075-.4125.1125-.6375.9375-.08125.3125-.25625.7625-.3875 1.00625-.51875.9625-.55625 1.31875-.6 5.9-.0375 3.81875-.0875 4.3625-.50625 5.26875-.15.3375-.275.63125-.275.65625 0 .1375-.56875 1.7875-.7125 2.0625-.0875.175-.26875.6375-.40625 1.03125-.13125.4-.34375.93125-.4625 1.1875-.21875.45625-.3875.925-.6875 1.89375-.0875.275-.275.775-.41875 1.1125-.1375.3375-.3375 1-.44375 1.46875-.225.99375-.20625.95625-.7375 1.625-.5.625-.8625.8375-1.425.84375C25.9875 30.025 26 30.06875 26 27.325c0-1.54375-.025-2.36875-.0875-2.83125-.05-.35625-.125-1.60625-.1625-2.775s-.1125-2.74375-.16875-3.5c-.16875-2.31875-.19375-3.16875-.1-3.33125.08125-.1375.09375-.1375 1.60625-.1375 1.41875 0 1.525-.00625 1.625-.11875.25625-.28125.0375-.4-.9625-.50625-.875-.1-1.7875-.3-2.125-.46875-.31875-.1625-.29375-.1625-2.71875-.1625-2.34375 0-2.31875 0-2.8125.2-.425.16875-1.325.35-2.425.48125-.63125.08125-.8125.23125-.56875.475.08125.0875.3125.1 1.575.1 1.925 0 1.79375-.08125 1.7375 1.05625-.025.46875-.06875 1.01875-.1 1.225-.075.48125-.16875 2.16875-.25 4.65625-.0375 1.08125-.1125 2.29375-.1625 2.6875-.06875.53125-.09375 1.28125-.09375 2.8625.0125 2.7875.01875 2.7625-.775 2.7625-.61875 0-.95-.16875-1.3625-.68125-.575-.7125-.64375-.85-.85-1.7625-.11875-.54375-.3-1.13125-.5-1.6125-.175-.4125-.375-.9625-.44375-1.2125-.14375-.525-.575-1.65625-.7125-1.86875-.05-.08125-.1875-.4625-.3125-.84375-.11875-.3875-.30625-.89375-.4125-1.11875-.1125-.225-.35-.86875-.5375-1.4375-.18125-.5625-.425-1.19375-.53125-1.40625-.3625-.725-.41875-1.35625-.4625-5.525C12.8625 8.3125 12.825 7.9875 12.3 6.96875c-.1375-.275-.33125-.78125-.43125-1.125-.21875-.79375-.45-1.0125-.7375-.725m12.18125 9.975c.0625.075.0625.15625.00625.36875-.19375.7875.03125 10.7.275 11.975.20625 1.075.34375 7.33125.21875 9.96875-.06875 1.40625-.0875 1.55625-.5375 3.46875C23.0375 41.89375 23 42 22.90625 42c-.28125 0-.83125-2.8125-.9125-4.675-.125-2.73125.01875-8.95.225-9.84375.24375-1.09375.48125-11.2875.28125-12.04375-.05-.19375-.05-.28125.00625-.35.1-.125.7-.11875.80625.00625M21.94375 7.875c-.38125.0875-.63125.7125-.65625 1.5875-.00625.43125-.00625.43125.425.53125.6125.14375.56875.38125-.1375.85-.3.19375-.3125.21875-.475.9375-.05625.2375-.16875.575-.25625.7375-.0875.16875-.15625.3125-.15625.325 0 .1375 2.80625.21875 4.01875.11875.51875-.04375.5625-.0875.3625-.35-.14375-.18125-.35625-.78125-.4125-1.175-.05-.36875-.16875-.5375-.425-.61875-.2375-.08125-.6375-.53125-.58125-.6625.01875-.05.1625-.1.33125-.125.66875-.08125.70625-.18125.45-1.26875-.1625-.69375-.25-.81875-.61875-.89375-.34375-.0625-1.58125-.0625-1.86875.00625"/></svg>